<svg xmlns="http://www.w3.org/2000/svg" width="512" height="512" viewBox="0 0 512 512">
	<g style="fill:#0000;stroke:#888;stroke-width:2;stroke-linecap:round;stroke-linejoin:round;">
		<path d="
			M  0   0l 40  40M  0 128l 40 -40M128   0l-40  40M128 128l-40 -40
			M256   0l 40  40M256 128l 40 -40M384   0l-40  40M384 128l-40 -40
			M  0 256l 40  40M  0 384l 40 -40M128 256l-40  40M128 384l-40 -40
			M256 256l 40  40M256 384l 40 -40M384 256l-40  40M384 384l-40 -40

			M128 128l 48  48M128 256l 48 -48M256 128l-48  48M256 256l-48 -48
			M384 128l 48  48M384 256l 48 -48M512 128l-48  48M512 256l-48 -48
			M128 384l 48  48M128 512l 48 -48M256 384l-48  48M256 512l-48 -48
			M384 384l 48  48M384 512l 48 -48M512 384l-48  48M512 512l-48 -48

			M0 512h-1M512 0h1
		" stroke-dasharray=".000001 10"/>
		<path d="
			M192 192m12 0q-9 -3-12-12 -3 9-12 12 9 3 12 12 3-9 12-12
			M448 448m12 0q-9 -3-12-12 -3 9-12 12 9 3 12 12 3-9 12-12
			M448 192m0 12l9-9c9-9 0-18-9-9 -9-9 -18 0 -9 9z
			M192 448m0 12l9-9c9-9 0-18-9-9 -9-9 -18 0 -9 9z
		"/>
	</g>
</svg>
